<svg xmlns="http://www.w3.org/2000/svg" viewBox="0 0 64 64">
  <defs>
    <linearGradient id="bg" x1="8" y1="8" x2="56" y2="56" gradientUnits="userSpaceOnUse">
      <stop offset="0" stop-color="#22c55e" />
      <stop offset="1" stop-color="#16a34a" />
    </linearGradient>
  </defs>
  <rect x="4" y="4" width="56" height="56" rx="16" fill="url(#bg)" />
  <path
    d="M20 22c0-2.2 1.8-4 4-4h16c2.2 0 4 1.8 4 4v2h-6v-1H26v6h12c3.3 0 6 2.7 6 6v7c0 2.2-1.8 4-4 4H24c-2.2 0-4-1.8-4-4v-2h6v1h12v-6H26c-3.3 0-6-2.7-6-6v-7Z"
    fill="#fff"
  />
</svg>
